<svg width="24" height="24" viewBox="0 0 24 24" fill="none" xmlns="http://www.w3.org/2000/svg">
<path d="M21.6759 14.6632L20.1408 13.3507C20.2134 12.9054 20.2509 12.4507 20.2509 11.996C20.2509 11.5414 20.2134 11.0867 20.1408 10.6414L21.6759 9.32886C21.7917 9.22973 21.8746 9.09771 21.9135 8.95034C21.9525 8.80297 21.9456 8.64724 21.8939 8.50386L21.8728 8.44292C21.4502 7.26173 20.8173 6.16675 20.0048 5.21089L19.9627 5.16167C19.8641 5.04578 19.7327 4.96247 19.5859 4.92272C19.439 4.88297 19.2836 4.88865 19.14 4.93901L17.2345 5.61636C16.5314 5.03979 15.7463 4.58511 14.8978 4.26636L14.5298 2.27417C14.5021 2.12427 14.4294 1.98636 14.3214 1.87877C14.2134 1.77119 14.0752 1.69901 13.9252 1.67183L13.8619 1.66011C12.6408 1.43979 11.3564 1.43979 10.1353 1.66011L10.072 1.67183C9.92202 1.69901 9.78384 1.77119 9.67583 1.87877C9.56782 1.98636 9.49511 2.12427 9.46734 2.27417L9.09703 4.27573C8.25536 4.59455 7.47156 5.049 6.77672 5.62104L4.85719 4.93901C4.71367 4.88825 4.5581 4.88237 4.41116 4.92214C4.26422 4.96191 4.13286 5.04545 4.03453 5.16167L3.99234 5.21089C3.18081 6.16743 2.54807 7.26223 2.12438 8.44292L2.10328 8.50386C1.99781 8.79683 2.08453 9.12495 2.32125 9.32886L3.87516 10.6554C3.8025 11.096 3.76734 11.546 3.76734 11.9937C3.76734 12.4437 3.8025 12.8937 3.87516 13.332L2.32125 14.6585C2.20546 14.7577 2.12259 14.8897 2.08365 15.0371C2.04472 15.1844 2.05156 15.3402 2.10328 15.4835L2.12438 15.5445C2.54859 16.7257 3.17672 17.8156 3.99234 18.7765L4.03453 18.8257C4.1331 18.9416 4.26446 19.0249 4.41132 19.0647C4.55817 19.1044 4.71363 19.0987 4.85719 19.0484L6.77672 18.3664C7.47516 18.9406 8.25563 19.3953 9.09703 19.7117L9.46734 21.7132C9.49511 21.8631 9.56782 22.001 9.67583 22.1086C9.78384 22.2162 9.92202 22.2884 10.072 22.3156L10.1353 22.3273C11.3676 22.5488 12.6296 22.5488 13.8619 22.3273L13.9252 22.3156C14.0752 22.2884 14.2134 22.2162 14.3214 22.1086C14.4294 22.001 14.5021 21.8631 14.5298 21.7132L14.8978 19.721C15.7459 19.4031 16.5355 18.947 17.2345 18.371L19.14 19.0484C19.2835 19.0991 19.4391 19.105 19.586 19.0653C19.733 19.0255 19.8643 18.9419 19.9627 18.8257L20.0048 18.7765C20.8205 17.8132 21.4486 16.7257 21.8728 15.5445L21.8939 15.4835C21.9994 15.1953 21.9127 14.8671 21.6759 14.6632V14.6632ZM18.4767 10.9179C18.5353 11.2718 18.5658 11.6351 18.5658 11.9984C18.5658 12.3617 18.5353 12.725 18.4767 13.0789L18.322 14.0187L20.0728 15.5164C19.8074 16.1278 19.4724 16.7066 19.0744 17.2414L16.8994 16.4703L16.1634 17.075C15.6033 17.5343 14.9798 17.8953 14.3048 18.1484L13.4119 18.4835L12.9923 20.757C12.3304 20.832 11.6621 20.832 11.0002 20.757L10.5806 18.4789L9.69469 18.139C9.02672 17.8859 8.40563 17.525 7.85016 17.0679L7.11422 16.4609L4.92516 17.239C4.52672 16.7023 4.19391 16.1234 3.92672 15.514L5.69625 14.0023L5.54391 13.0648C5.48766 12.7156 5.45719 12.3546 5.45719 11.9984C5.45719 11.6398 5.48531 11.2812 5.54391 10.932L5.69625 9.99448L3.92672 8.48276C4.19156 7.87104 4.52672 7.29448 4.92516 6.75776L7.11422 7.53589L7.85016 6.92886C8.40563 6.47183 9.02672 6.11089 9.69469 5.85776L10.583 5.52261L11.0025 3.24448C11.6611 3.16948 12.3338 3.16948 12.9947 3.24448L13.4142 5.51792L14.3072 5.85308C14.9798 6.1062 15.6056 6.46714 16.1658 6.92651L16.9017 7.5312L19.0767 6.76011C19.4752 7.29683 19.808 7.87573 20.0752 8.48511L18.3244 9.98276L18.4767 10.9179ZM12.0009 7.63901C9.72281 7.63901 7.87594 9.48589 7.87594 11.764C7.87594 14.0421 9.72281 15.889 12.0009 15.889C14.2791 15.889 16.1259 14.0421 16.1259 11.764C16.1259 9.48589 14.2791 7.63901 12.0009 7.63901ZM13.8572 13.6203C13.6137 13.8644 13.3244 14.058 13.0058 14.19C12.6873 14.3219 12.3457 14.3896 12.0009 14.389C11.3002 14.389 10.6416 14.1148 10.1447 13.6203C9.90052 13.3768 9.70691 13.0875 9.57498 12.7689C9.44304 12.4503 9.3754 12.1088 9.37594 11.764C9.37594 11.0632 9.65016 10.4046 10.1447 9.90776C10.6416 9.41089 11.3002 9.13901 12.0009 9.13901C12.7017 9.13901 13.3603 9.41089 13.8572 9.90776C14.1014 10.1512 14.295 10.4406 14.4269 10.7591C14.5588 11.0777 14.6265 11.4192 14.6259 11.764C14.6259 12.4648 14.3517 13.1234 13.8572 13.6203Z" fill="black"/>
</svg>
