<svg width="24" height="24" viewBox="0 0 24 24" fill="none" xmlns="http://www.w3.org/2000/svg">
<path d="M22.1841 11.8372L13.1279 2.78565L12.5208 2.17862C12.3825 2.04122 12.1955 1.96411 12.0005 1.96411C11.8056 1.96411 11.6185 2.04122 11.4802 2.17862L1.81694 11.8372C1.67522 11.9784 1.56321 12.1465 1.48753 12.3317C1.41186 12.5169 1.37404 12.7153 1.37632 12.9153C1.38569 13.7403 2.07241 14.3989 2.89741 14.3989H3.89351V22.0325H20.1076V14.3989H21.1248C21.5255 14.3989 21.9029 14.2419 22.1865 13.9583C22.3261 13.8191 22.4368 13.6536 22.512 13.4714C22.5872 13.2891 22.6255 13.0938 22.6248 12.8966C22.6248 12.4982 22.4677 12.1208 22.1841 11.8372V11.8372ZM13.313 20.345H10.688V15.5638H13.313V20.345ZM18.4201 12.7114V20.345H14.813V15.0013C14.813 14.4833 14.3935 14.0638 13.8755 14.0638H10.1255C9.60757 14.0638 9.18804 14.4833 9.18804 15.0013V20.345H5.58101V12.7114H3.33101L12.0029 4.04659L12.5443 4.588L20.6724 12.7114H18.4201Z" fill="white"/>
</svg>
