<svg width="26" height="26" viewBox="0 0 26 26" fill="none" xmlns="http://www.w3.org/2000/svg">
<g clip-path="url(#clip0_88_169)">
<path d="M23.2917 2.16667H19.5V0H18.4167V2.16667H7.58333V0H6.5V2.16667H2.70833C1.2155 2.16667 0 3.38108 0 4.875V26H26V4.875C26 3.38108 24.7845 2.16667 23.2917 2.16667ZM2.70833 3.25H23.2917C24.1876 3.25 24.9167 3.97908 24.9167 4.875V8.66667H1.08333V4.875C1.08333 3.97908 1.81242 3.25 2.70833 3.25ZM1.08333 24.9167V9.75H24.9167V24.9167H1.08333ZM17.1752 13.9252L13.767 17.3333L17.1752 20.7415L16.4093 21.5074L13.0011 18.0993L9.59292 21.5074L8.827 20.7415L12.2352 17.3333L8.827 13.9252L9.59292 13.1593L13.0011 16.5674L16.4093 13.1593L17.1752 13.9252Z" fill="black"/>
</g>
<defs>
<clipPath id="clip0_88_169">
<rect width="26" height="26" fill="white"/>
</clipPath>
</defs>
</svg>
