<svg width="24" height="24" viewBox="0 0 24 24" fill="none" xmlns="http://www.w3.org/2000/svg">
<path d="M19.3166 16.404C18.73 15.8169 18.0445 15.3377 17.2916 14.9883C18.3534 14.1282 19.0307 12.8157 19.0307 11.3438C19.0307 8.74694 16.8651 6.61647 14.2682 6.65631C11.7112 6.69616 9.65101 8.77975 9.65101 11.3438C9.65101 12.8157 10.3307 14.1282 11.3901 14.9883C10.637 15.3374 9.95153 15.8166 9.36507 16.404C8.08539 17.686 7.35882 19.3782 7.31195 21.1829C7.31132 21.2079 7.31571 21.2328 7.32485 21.2561C7.334 21.2794 7.34771 21.3006 7.36518 21.3185C7.38265 21.3364 7.40354 21.3506 7.4266 21.3604C7.44966 21.3701 7.47443 21.3751 7.49945 21.3751H8.81195C8.91273 21.3751 8.99711 21.2954 8.99945 21.1946C9.04398 19.8352 9.59476 18.5626 10.5627 17.5969C11.0581 17.099 11.6472 16.7042 12.2961 16.4355C12.9451 16.1667 13.6408 16.0294 14.3432 16.0313C15.7705 16.0313 17.1135 16.5868 18.1237 17.5969C19.0893 18.5626 19.6401 19.8352 19.6869 21.1946C19.6893 21.2954 19.7737 21.3751 19.8744 21.3751H21.1869C21.212 21.3751 21.2367 21.3701 21.2598 21.3604C21.2829 21.3506 21.3037 21.3364 21.3212 21.3185C21.3387 21.3006 21.3524 21.2794 21.3615 21.2561C21.3707 21.2328 21.3751 21.2079 21.3744 21.1829C21.3276 19.3782 20.601 17.686 19.3166 16.404ZM14.3432 14.3438C13.5416 14.3438 12.7869 14.0321 12.2221 13.4649C11.9386 13.1837 11.7147 12.8482 11.5637 12.4786C11.4127 12.1089 11.3377 11.7126 11.3432 11.3133C11.3502 10.5446 11.6573 9.80162 12.194 9.25084C12.7565 8.67428 13.5088 8.35319 14.3127 8.34381C15.1073 8.33678 15.8784 8.64616 16.4455 9.20162C17.0268 9.77116 17.3455 10.5329 17.3455 11.3438C17.3455 12.1454 17.0338 12.8977 16.4666 13.4649C16.1884 13.7445 15.8574 13.9661 15.4929 14.117C15.1285 14.2679 14.7377 14.345 14.3432 14.3438ZM8.47211 11.9626C8.45101 11.7587 8.43929 11.5524 8.43929 11.3438C8.43929 10.9712 8.47445 10.6079 8.54007 10.254C8.55648 10.1696 8.51195 10.0829 8.4346 10.0477C8.11585 9.90475 7.82289 9.70787 7.56976 9.45944C7.2715 9.17024 7.03679 8.82203 6.88062 8.43705C6.72444 8.05207 6.65024 7.63876 6.66273 7.2235C6.68382 6.47116 6.98617 5.75631 7.51351 5.21725C8.09242 4.62428 8.87054 4.30084 9.69789 4.31022C10.4455 4.31725 11.1674 4.60553 11.7135 5.11647C11.8987 5.28991 12.058 5.48209 12.1916 5.68834C12.2385 5.761 12.3299 5.79147 12.4096 5.76334C12.8221 5.62037 13.258 5.51959 13.7057 5.47272C13.8369 5.45866 13.9119 5.31803 13.8534 5.20084C13.0916 3.69381 11.5354 2.65319 9.73539 2.62506C7.13617 2.58522 4.97054 4.71569 4.97054 7.31022C4.97054 8.78209 5.64789 10.0946 6.7096 10.9547C5.96429 11.2993 5.27757 11.7751 4.68226 12.3704C3.39789 13.6524 2.67132 15.3446 2.62445 17.1516C2.62382 17.1766 2.62821 17.2015 2.63735 17.2248C2.64649 17.2481 2.66021 17.2693 2.67768 17.2872C2.69515 17.3052 2.71604 17.3194 2.7391 17.3291C2.76216 17.3388 2.78693 17.3438 2.81195 17.3438H4.12679C4.22757 17.3438 4.31195 17.2641 4.31429 17.1633C4.35882 15.804 4.9096 14.5313 5.87757 13.5657C6.56664 12.8766 7.41039 12.3985 8.33148 12.1665C8.42289 12.143 8.48382 12.0563 8.47211 11.9626V11.9626Z" fill="white"/>
</svg>
